<svg width="1100" height="800" viewBox="0 0 1100 800" fill="none" xmlns="http://www.w3.org/2000/svg">
<path d="M517 668.12C487.89 668.2 458.78 668.88 429.73 672.01C418.73 673.19 408.04 675.79 397.06 676.83C375.13 678.92 353.59 682.83 331.58 684.63C313.85 686.08 296.05 686.93 278.37 688.77C261.255 690.552 243.979 690.041 227 687.25C214.82 685.14 202.59 683.95 190.62 680.57C177.24 676.78 162.69 674.07 148.74 674.17C128.85 674.3 109.48 674.32 90.44 681.01C83.76 683.36 75.58 687.22 70.5 692.15C58.92 703.43 57.35 731.58 69 743.28C88.54 762.97 130.23 770.7 157.62 771.07C187.62 771.46 216.78 769.31 246.83 768.07C274.75 766.89 302.61 765.21 330.58 765.27C387.71 765.39 444.84 765.27 501.87 761.58C555.44 758.1 609.15 759.3 662.87 759.3C717.93 759.3 772.62 759.71 827.28 766.8C851.1 769.89 875.36 770.97 899.28 773.13C920.72 775.07 941.28 773.13 962.67 771.31C980.656 769.861 998.253 765.29 1014.67 757.8C1027.56 751.8 1050.55 733.3 1054.5 719.05C1065.59 679.12 898.28 680.05 872.6 680.17C843.86 680.27 814.9 681.17 786.18 680.17C774.1 679.73 762.18 677.44 750.41 674.93C738.64 672.42 726.84 673.07 714.93 672.02C665.28 667.65 615.51 668.29 565.7 668.29C549.46 668.21 533.24 668.07 517 668.12Z" fill="#F1F2F2"/>
<path d="M329.08 243.39L335.15 239.3L342.09 242.39L345.55 248.85L343.1 253.77L336.89 256.51L339.04 257.35L338.44 259.11L328.81 262.28C326.81 259.74 319.61 257.15 318.57 255.79L325.28 251.2L329.08 243.39Z" fill="#AA6755"/>
<path d="M200.84 480.56L133.57 455.82L147.44 573.67L139.4 675.33L139.19 676.01L139.35 676.03L139.33 676.25L152.6 677.52V677.5L153.1 677.56L182.72 586.98L198.41 490.49L200.84 480.56Z" fill="#1A3151"/>
<path d="M151.91 682.15L138.15 681.8L134.63 693.41L134.98 693.52L134.89 693.53L157.64 707.01L168.46 708.21L169.84 695.85L166.91 693.71L151.91 682.15Z" fill="#162A42"/>
<path d="M246.66 482.58L226.47 684.35L213.16 684.96L199.78 576.01L176.59 467.51L246.66 482.58Z" fill="#1A3151"/>
<path d="M226.44 689.04L244.07 699.04L242.42 707.36L210.91 702.61L212.76 690.62L226.44 689.04Z" fill="#162A42"/>
<path d="M278.2 533.26C282.46 530.26 282.55 525.16 282.54 520C282.54 510.32 280.79 500.43 278.54 491C274.31 473.36 269.54 452.11 267.42 429.25C261.98 370.16 243.32 330.5 243.32 330.5L237.32 314.5C236.13 312.41 234.89 310.34 233.59 308.31C226.07 296.51 213.01 276.45 199.05 273.17L198.17 272.97C183.48 269.75 164.67 271.24 151.4 278.38C148.92 279.812 146.576 281.469 144.4 283.33C137.91 288.57 132.62 291.4 129.82 299.38C127.4 306.3 126.82 313.86 125.49 321.03C122.77 335.61 121.15 350.37 118.98 365.03C114.9 392.53 111.44 420.12 107.09 447.58C104.84 461.71 102.58 475.87 101.53 490.15C100.59 502.77 89.2 515.59 82.8 526.91C80.57 530.85 112.56 541.05 115.42 541.72C128.69 544.8 142.81 544.02 156.49 544.08C186.49 544.207 216.443 543.283 246.35 541.31C256.29 540.65 268.54 538.75 277.35 533.8C277.643 533.635 277.926 533.455 278.2 533.26Z" fill="#EAEDEF"/>
<path d="M181.7 271.33C181.7 271.33 164.82 266.77 162.49 304.86C160.16 342.95 156.27 439.37 150.82 465.86C145.37 492.35 137.22 544.14 137.22 544.14L188.92 545.94L248 541.23C248 541.23 227.79 503.91 224.68 477.47C221.57 451.03 227.01 351.47 213.79 314.2C200.57 276.93 197.81 272 181.7 271.33Z" fill="#3ABABA"/>
<path d="M217.03 315.86L254.71 336.34L277.42 328.57L335.53 264.68L320.09 250.72L258.42 298.93L209.87 277.75L217.03 315.86Z" fill="#EAEDEF"/>
<path d="M205.25 241.14C207.81 248.81 204.11 256.99 200.86 263.98C197.99 270.18 196.98 274.26 204.29 275.98C208.41 276.92 215.71 278.68 219.29 275.52C222.02 273.14 220.48 265.76 219.15 262.83C218.15 260.59 215.45 259.46 214.49 257.19C214.144 256.229 213.988 255.21 214.03 254.19C213.97 250.048 214.54 245.921 215.72 241.95C216.52 239.25 217.6 236.61 217.84 233.81C218.19 229.75 215.32 225.03 213.84 221.3C211.04 214.36 201.27 205.06 193.1 210.5C191.24 211.74 190.1 213.84 189.25 215.88C188.634 217.07 188.266 218.373 188.17 219.71C188.11 225.04 192.97 225.94 196.33 228.47C200.489 231.72 203.593 236.128 205.25 241.14V241.14Z" fill="#1A3151"/>
<path d="M189.7 271.07C196.79 269.4 202.34 263.45 205 256.67C207.66 249.89 207.81 242.37 207.07 235.12C204.62 211 174.61 212.55 164.45 231.04C155.6 247.15 169.08 275.93 189.7 271.07Z" fill="#AA6755"/>
<path d="M189.7 268.48L189.34 276.72C189.385 276.937 189.371 277.161 189.302 277.371C189.232 277.581 189.108 277.768 188.943 277.915C188.778 278.062 188.577 278.163 188.361 278.208C188.144 278.252 187.92 278.239 187.71 278.17L180.99 277.94C179.877 277.984 178.768 277.772 177.75 277.32C175.61 276.17 175.17 273.27 175.51 270.86C175.85 268.45 176.71 266.03 176.2 263.66C180.83 265.93 185.2 260.79 189.84 263.06L189.7 268.48Z" fill="#AA6755"/>
<path d="M180 193.31C172.14 196 167.09 204 159.4 207.13C154.99 208.96 149.78 209.19 146.18 212.33C138.12 219.33 144.6 234.1 137.97 242.49C136.6 244.24 134.74 245.56 133.36 247.3C130.36 251.05 129.98 256.18 129.72 260.97C129.637 262.081 129.674 263.197 129.83 264.3C130.83 275.36 146.92 274.66 153.3 273.95C160.3 273.17 157.96 269.28 157.96 269.28L157.71 268.97C157.398 266.715 157.666 264.418 158.488 262.296C159.31 260.173 160.66 258.296 162.41 256.84C163.72 255.77 165.27 254.93 166.19 253.52C168.26 250.35 166.29 246.16 166.59 242.39C167.82 227.21 193.3 230.46 200.49 219.65C209.31 206.39 194.9 188.25 180 193.31Z" fill="#1A3151"/>
<path d="M781.37 278.21L772.51 273.26L770.21 264.6L768.13 264.16L767.48 266.7L763.51 260.06L757.6 257.97L750.76 262.75L748.22 270.99L753.68 277.28L763.06 280.51L774.89 287.82L781.37 278.21Z" fill="#EAC1A4"/>
<path d="M782.21 272.58L768.92 288.31L818.12 336.04L831.38 340.32L887.87 295.27L872.76 264.42L830.63 300.23L782.21 272.58Z" fill="#EAEDEF"/>
<path d="M975.03 691.14L977 700.19L961.37 713.08L950.59 705.95L957.42 694.98L973.05 682.1L975.03 691.14Z" fill="#1A3151"/>
<path d="M920.36 412.9L937.8 453.13L939.45 566.3L975.31 688.03L958.64 695.42L885.45 554.08L877.12 509.31L873.8 415.02L920.36 412.9Z" fill="#145566"/>
<path d="M835.9 421.92L834.53 540.52L856.88 693.44H874.07L884.92 552.34L908.44 411.24L835.9 421.92Z" fill="#145566"/>
<path d="M873.97 691.4V700.69L855.38 709.98L846.09 700.69L855.38 691.4H873.97Z" fill="#1A3151"/>
<path d="M869.75 261.32L915.4 259.62C915.4 259.62 942.71 283.62 956.82 345.85C971.19 409.26 954.17 500.53 954.17 500.53C954.17 500.53 831.69 484.21 811.61 481.69L842.25 356.5L869.75 261.32Z" fill="#EAEDEF"/>
<path d="M886.11 266L902.11 264.44C902.167 260.164 901.883 255.891 901.26 251.66C905.7 250.11 910.84 247.77 911.62 243.13C911.787 241.653 911.702 240.159 911.37 238.71C910.33 232.657 909.293 226.61 908.26 220.57C908.034 218.466 907.395 216.427 906.38 214.57C904.38 211.43 900.53 210.05 896.86 209.4C887.5 207.77 877.31 209.78 870.04 215.9C868.03 217.468 866.467 219.537 865.51 221.9C864.19 225.57 865.17 229.62 866.15 233.39L868.88 243.83C869.88 247.83 871.43 252.39 875.29 253.89C877.29 254.69 879.75 254.46 881.6 255.64C884.86 257.64 884.41 262.5 886.11 266Z" fill="#EAC1A4"/>
<path d="M834 205.57C833.956 201.496 834.396 197.431 835.31 193.46C836.73 186.97 844.39 184.05 851.02 183.59C865.34 182.59 879.16 176.1 893.15 181.11C901.15 183.98 911.88 184.67 919.15 188.71C922.139 190.484 924.649 192.963 926.46 195.93C929.633 201.032 931.315 206.921 931.315 212.93C931.315 218.939 929.633 224.828 926.46 229.93C924.983 232.174 923.31 234.282 921.46 236.23C917.68 240.32 913.16 245.37 907.97 246.88C907.85 242.24 912.1 227.6 908.54 223.79C902.89 217.79 890.09 219.79 883.07 221.31C875.41 222.92 868.58 228.31 860.99 229.48C855.52 230.31 848.55 227.62 843.91 224.79C836.64 220.39 834.21 213.06 834 205.57Z" fill="#1A3151"/>
<path d="M882.34 267L834.34 459L830.4 484.18L890.2 492C890.2 492 887.84 400.07 888.63 387.82C889.42 375.57 898.29 349.05 899.63 320.49C900.41 303.97 905.63 274.29 901.99 264.63L882.34 267Z" fill="#C8D6A1"/>
<path d="M489.66 479.79V531.79C489.914 530.718 490.045 529.621 490.05 528.52V446.16H489.66V479.79Z" fill="#D9A3A3"/>
<path d="M489.68 409.89V359C489.415 360.084 489.278 361.194 489.27 362.31V443.81H489.66V409.89H489.68Z" fill="#D9A3A3"/>
<path d="M474.38 594C472.413 594.203 470.511 594.819 468.8 595.81C463.469 599.06 457.844 601.802 452 604C457.56 602.16 463.06 599.17 468.83 596C470.558 595.034 472.433 594.359 474.38 594V594Z" fill="#D9A3A3"/>
<path d="M527.28 358.06C521.457 355.903 515.849 353.204 510.53 350C508.817 349.013 506.916 348.396 504.95 348.19C506.883 348.553 508.744 349.228 510.46 350.19C516.23 353.23 521.73 356.22 527.28 358.06Z" fill="#D9A3A3"/>
<path d="M489.65 604.87V712.44H490.06V608.18C490.052 607.064 489.915 605.954 489.65 604.87V604.87Z" fill="#D9A3A3"/>
<path d="M338.58 424.42C340.041 426.736 340.785 429.432 340.72 432.17C341.041 429.05 340.305 425.912 338.63 423.26C332.89 414.06 329.22 403.84 329.27 394.2C328.91 404.18 332.62 414.85 338.58 424.42Z" fill="#D9A3A3"/>
<path d="M404.09 396.79C403.64 406.05 398.99 414.85 393.91 423.74C392.665 425.905 392.02 428.363 392.04 430.86C392.197 428.768 392.823 426.738 393.87 424.92C399.16 415.66 404 406.48 404.09 396.79Z" fill="#D9A3A3"/>
<path d="M489.67 285.87V175.2H489.28V282.6C489.285 283.701 489.416 284.798 489.67 285.87Z" fill="#D9A3A3"/>
<path d="M474.38 594C472.447 594.363 470.586 595.038 468.87 596C463.1 599.13 457.6 602.12 452.04 604C443.68 606.85 435.04 607.29 425.85 602.27C407.03 592.03 400.06 566.71 410.92 548.27C424.3 525.52 448.64 528.27 468.32 540.6C470.234 541.792 472.405 542.511 474.652 542.699C476.899 542.886 479.159 542.536 481.244 541.677C483.329 540.818 485.18 539.475 486.643 537.76C488.107 536.044 489.141 534.004 489.66 531.81V446.16V443.78H489.27V445.7H402.49C399.288 444.833 396.489 442.876 394.575 440.167C392.66 437.459 391.75 434.168 392 430.86C391.98 428.363 392.625 425.905 393.87 423.74C398.95 414.85 403.6 406.05 404.05 396.79C404.094 391.616 402.791 386.519 400.27 382C390.05 363.17 364.73 356.19 346.27 367C334.58 373.87 329.64 383.64 329.27 394.18C329.27 403.82 332.89 414.04 338.63 423.24C340.305 425.892 341.041 429.03 340.72 432.15C340.661 435.27 339.58 438.284 337.644 440.732C335.708 443.179 333.023 444.924 330 445.7H254.53C254.28 446.08 254.02 446.45 253.78 446.84C247.27 457.49 248.61 465.4 258.33 472.1C264.55 476.39 271.12 480.1 276.58 485.64C284.9 494.14 285.44 499.15 279.08 509.64C271.93 521.49 272 522 283 530.37C286 532.63 289.07 534.37 284.93 538.59C278.83 544.87 281.01 551 286.26 555.59C293.63 562.01 294.74 570.25 293.35 579.47C292.15 587.47 290.35 595.47 288.86 603.47C284.8 625.02 290.45 635.02 309.92 640.68C330.25 646.59 350.47 641.47 370.74 639.52C384.32 638.21 397.69 633.52 411.59 636.92C420.59 639.15 425.59 644.67 426.75 654.77C428.44 669.51 432.83 683.59 435.34 698.09C437.34 709.92 442.53 713.61 453.18 713.09C462.1 712.69 474.87 712.5 489.68 712.45V604.87C488.877 601.513 486.884 598.562 484.07 596.563C481.257 594.564 477.814 593.654 474.38 594V594Z" fill="#1A3151"/>
<path d="M563.13 243C564.144 245.014 565.623 246.757 567.444 248.086C569.265 249.415 571.377 250.291 573.604 250.642C575.831 250.993 578.11 250.808 580.251 250.104C582.393 249.399 584.336 248.195 585.92 246.59C602.21 230.08 625.23 221.7 643.54 240.72C658.38 256.14 657.48 282.39 641.54 296.72C633.72 303.72 625.26 305.32 616.46 304.49C610.63 303.99 604.59 302.36 598.25 300.65C596.357 300.127 594.391 299.918 592.43 300.03C589.021 300.491 585.894 302.172 583.627 304.76C581.36 307.348 580.108 310.67 580.1 314.11L591.93 363.64L599.79 396.64L600.07 397.83L600.34 398.95L600.72 398.86L686.16 378.46C688.215 378.698 690.194 379.383 691.957 380.465C693.72 381.547 695.226 383.002 696.369 384.726C697.511 386.451 698.264 388.405 698.573 390.45C698.883 392.496 698.742 394.584 698.16 396.57C693.68 411.86 690.16 426.72 701.91 439.82C716.22 455.76 742.46 456.67 757.91 441.82C776.91 423.53 768.58 400.5 752.08 384.2C750.577 382.704 749.428 380.891 748.716 378.894C748.005 376.896 747.749 374.765 747.967 372.656C748.186 370.546 748.873 368.513 749.979 366.704C751.086 364.895 752.582 363.356 754.36 362.2L806.6 349.73C809.322 331.147 809.13 312.254 806.03 293.73C797 248 779.24 212.64 751.21 187C693.7 134.31 627.34 119.9 556.88 131.1C550.313 132.15 543.815 133.593 537.42 135.42L551.05 192.5L563.13 243Z" fill="#145566"/>
<path d="M489.67 443.78H489.66V446.16L489.67 445.01V443.78Z" fill="#B5D6CA"/>
<path d="M650.67 713.12C663.38 712.43 657.21 704.49 651.35 692.12C603.78 592.12 660.44 511.54 669.72 500.26C683.146 483.989 693.943 465.718 701.72 446.11H648C645.996 446.817 644.175 447.966 642.674 449.47C641.172 450.974 640.027 452.796 639.322 454.801C638.618 456.807 638.372 458.945 638.604 461.058C638.836 463.171 639.538 465.205 640.66 467.01C652.92 486.7 655.71 511.01 632.95 524.41C614.5 535.26 589.18 528.28 578.95 509.41C570.54 493.94 577.44 480.31 585.35 466.47C586.376 464.672 586.997 462.672 587.169 460.61C587.342 458.547 587.061 456.472 586.348 454.529C585.635 452.586 584.505 450.822 583.039 449.361C581.573 447.9 579.805 446.777 577.86 446.07H490.05V528.5C490.045 529.601 489.914 530.698 489.66 531.77V532.12C489.111 534.288 488.059 536.297 486.588 537.982C485.117 539.667 483.27 540.982 481.195 541.819C479.121 542.655 476.878 542.991 474.65 542.799C472.421 542.606 470.27 541.89 468.37 540.71C448.68 528.44 424.37 525.65 410.97 548.4C400.12 566.86 408.15 591.74 426.97 601.97C436.07 606.91 444.11 606.6 452.04 603.97C457.867 601.795 463.478 599.08 468.8 595.86C470.511 594.869 472.413 594.252 474.38 594.05C481.62 592.77 488.02 596.78 489.65 604.64V604.88C489.911 605.964 490.046 607.075 490.05 608.19V712.43C547.38 712.22 635 714 650.67 713.12Z" fill="#D1E7F5"/>
<path d="M489.65 604.87V604.63C488.02 596.77 481.65 592.76 474.38 594.04C477.804 593.699 481.235 594.608 484.041 596.598C486.847 598.589 488.839 601.526 489.65 604.87V604.87Z" fill="#1A3151"/>
<path d="M468.32 540.56C448.64 528.28 424.32 525.48 410.92 548.23C400.06 566.67 407.03 591.99 425.85 602.23C435.09 607.23 443.68 606.81 452.04 603.96C444.11 606.6 436.04 606.91 426.97 601.96C408.15 591.73 400.12 566.85 410.97 548.39C424.35 525.64 448.68 528.39 468.37 540.7C470.27 541.88 472.421 542.596 474.65 542.789C476.878 542.981 479.121 542.646 481.195 541.809C483.269 540.972 485.117 539.657 486.588 537.972C488.059 536.287 489.111 534.278 489.66 532.11V531.76C489.142 533.955 488.109 535.996 486.646 537.713C485.183 539.43 483.332 540.774 481.247 541.633C479.162 542.493 476.902 542.844 474.654 542.658C472.406 542.471 470.235 541.752 468.32 540.56V540.56Z" fill="#1A3151"/>
<path d="M568.41 302.33C555 279.58 530.68 282.38 511 294.66C509.086 295.85 506.917 296.568 504.671 296.754C502.425 296.94 500.166 296.589 498.083 295.731C495.999 294.872 494.149 293.53 492.687 291.815C491.224 290.101 490.19 288.063 489.67 285.87C489.413 284.799 489.279 283.702 489.27 282.6V175.21C459.94 176.54 431.41 185.37 404.03 198.79C396.67 202.4 389.43 206.35 382.26 210.41C331.92 238.92 303.91 282.69 306.26 346.83C307.6 382.83 291.57 409.02 267.9 431.04C263.61 435.04 259.36 438.98 255.9 443.76C255.43 444.39 254.99 445.04 254.55 445.7H330C333.021 444.927 335.706 443.186 337.644 440.742C339.582 438.299 340.666 435.288 340.73 432.17C340.79 429.433 340.046 426.739 338.59 424.42C332.59 414.85 328.91 404.18 329.28 394.2C329.66 383.66 334.6 373.89 346.28 367.02C364.73 356.17 390.05 363.15 400.28 382.02C402.818 386.541 404.135 391.645 404.1 396.83C404 406.52 399.17 415.7 393.88 424.96C392.833 426.778 392.207 428.808 392.05 430.9C391.798 434.202 392.702 437.489 394.609 440.197C396.516 442.905 399.306 444.865 402.5 445.74H489.28V362.28C489.292 360.29 489.72 358.324 490.536 356.509C491.351 354.694 492.537 353.068 494.017 351.737C495.496 350.407 497.237 349.399 499.129 348.78C501.02 348.16 503.02 347.942 505 348.14C506.966 348.346 508.867 348.963 510.58 349.95C515.897 353.172 521.505 355.887 527.33 358.06C535.7 360.91 544.33 361.35 553.53 356.32C572.3 346.09 579.26 320.77 568.41 302.33Z" fill="#B5D6CA"/>
<path d="M922.6 296.17L864.18 351.32L777.53 325.49L771.33 344.99L866.57 388.55H891.63L944.58 343.5L922.6 296.17Z" fill="#EAEDEF"/>
<path d="M771.89 343.23L756.81 343.5L747.6 330.51L771.01 317.49L777.53 325.49L771.89 343.23Z" fill="#EAC1A4"/>
<path d="M287.17 376.22L286.89 385.01L302.4 390.66L311.35 383.88V373.65L302.72 373.17L302.45 370.92L299.62 369.1L287.17 376.22Z" fill="#AA6755"/>
<path d="M157.68 310.46L221.68 364.94L289.68 366.26C289.68 366.26 286.92 395.46 286.95 393.03C286.98 390.6 211.69 400.31 211.69 400.31L144.89 353.1L157.68 310.46Z" fill="#EAEDEF"/>
</svg>
