<svg xmlns="http://www.w3.org/2000/svg" xmlns:xlink="http://www.w3.org/1999/xlink" version="1.1" x="0px" y="0px" viewBox="0 0 1500 1200" style="enable-background:new 0 0 1500 1200;" xml:space="preserve">
<style xmlns="http://www.w3.org/2000/svg" type="text/css">
	.st0{opacity:0.16;fill:#FDBD56;}
	.st1{opacity:0.32;fill:#FDBD56;}
	.st2{fill:#FDBD56;}
	.st3{opacity:0.5;fill:#FDBD56;}
	.st4{fill:#8B5E3C;}
	.st5{fill:#A97C50;}
	.st6{fill:#0B0B0B;}
	.st7{fill:#414042;}
	.st8{fill:#282828;}
	.st9{fill:#C2B59B;}
	.st10{fill:#FFFFFF;}
	.st11{fill:#232323;}
	.st12{fill:#B7B7B7;}
	.st13{fill:none;stroke:#414042;stroke-width:2;stroke-miterlimit:10;}
</style>
<g xmlns="http://www.w3.org/2000/svg" id="Layer_3">
	<path class="st0" d="M678.9,315.9c-39.2,22.5-50,40.8-102.9,63.5C488.7,417,460.6,392,408.3,421.4   c-76.5,43-118.1,153.6-101.6,245.2c10.3,57.6,41.8,97.1,63.5,124.5c37.9,47.7,81.8,45.2,122,99.1c23.8,31.9,22.3,47.6,36.8,73.7   c51,91.5,216.1,160.3,339.2,99.1c89.3-44.4,120.6-139.3,125.8-155c21.1-63.9-1.6-78.9,14-142.3c30-122.4,129.6-129.7,146.1-219.8   c17.2-93.5-68.7-201.6-158.8-247.7C847.5,222.4,685.7,312,678.9,315.9z"/>
	<path class="st1" d="M792.9,317c-44,10-59.8,24.3-117,30.5c-94.5,10.2-114-22-172.6-9.2c-85.7,18.6-158,112.1-169.2,204.5   c-7.1,58.1,11.4,105.1,24.1,137.7c22.2,56.7,64.9,67.3,87.4,130.6c13.4,37.5,7.3,52.1,13.6,81.3   c21.9,102.4,159.5,216.7,295.1,194.4c98.4-16.2,156.2-97.7,165.8-111.2c38.9-54.9,21.7-75.8,55.2-131.9   c64.6-108.2,161.9-85.9,204.3-167.1c43.9-84.3-6.4-212.9-79-283.5C981.5,277.2,800.5,315.2,792.9,317z"/>
	<circle class="st2" cx="1016.6" cy="548.8" r="30"/>
	<circle class="st2" cx="1068.2" cy="453" r="53.9"/>
	<circle class="st2" cx="497.2" cy="638" r="53.9"/>
	<g>
		<path class="st2" d="M440.6,570.5c-30.9,0-56-25.1-56-56s25.1-56,56-56s56,25.1,56,56S471.5,570.5,440.6,570.5z M440.6,459.8    c-30.1,0-54.7,24.5-54.7,54.7c0,30.1,24.5,54.7,54.7,54.7c30.1,0,54.7-24.5,54.7-54.7C495.3,484.3,470.8,459.8,440.6,459.8z"/>
	</g>
	<path class="st3" d="M668,488.4c1.4,5.4-1.8,10.9-7.2,12.3l-98.9,25.7c-5.4,1.4-10.9-1.8-12.3-7.2l-20.5-79   c-1.4-5.4,1.8-10.9,7.2-12.3l98.9-25.7c5.4-1.4,10.9,1.8,12.3,7.2L668,488.4z"/>
</g>
<g xmlns="http://www.w3.org/2000/svg" id="Violin">
	<g>
		<path class="st4" d="M951.7,589.6c10.1,18.4,11,52,10.7,60.4c-1.2,35.7-26.7,42.5-35.5,55.8c-9.4,14.1-8.5,24.7-8.5,24.7    s-15.9-13.8-28,3.5c-15,21.4-37.8,54.9-31.3,82.2c3.2,13.7,24.1,26.8,24.1,26.8c5.4,3.9-8.2,11.9-8.7,29.5    c-1.2,43.2-14.3,77.4-14,78.4c-19.8-75.8-57.1-219-77-294.9L951.7,589.6z"/>
		<path class="st4" d="M714.5,645.8c2.9,2.5,7.8,7.3,12,14.3c20.2,33.5-0.7,74.6,4.3,76.7c8.1,3.4,71.2-97.2,50.3-116.3    c-8.2-7.5-27.2-0.5-43.7,7.7L714.5,645.8z"/>
		<path class="st5" d="M857.3,958.1c15.2-31.7,13-63.3,13-63.3c-1.6-10.2-5-27.2,6.7-39.4c4-4.2,7.6-6.2,7.3-9.7    c-0.5-8.2-22.5-6.1-32.8-18.6c-15.6-19,6.4-59.8,12.5-71.1c6.7-12.4,21.6-40.1,38.5-37.9c7.3,1,12.6,7.2,15.9,12.4    c0,0-0.7-19.8,6.6-33.8c5-9.7,11.6-12.5,17.5-17.9c24.9-23.2,13.1-74.5,12.7-76.8c-13.7-71.3-117.7-102.3-172.7-71.3    c-2,1.1-47.3,27.9-47,62c0.1,8,2.6,14.7-1,25c-5.2,14.9-20,28-20,28c6.1-1.2,14.3-1.6,20,3c13.2,10.7,3.4,40.6-1,54    c-4,12.2-18.5,56.2-43,58c-16,1.1-29.6-16.3-36-11c-2.7,2.2-1.4,6.3-2,12c-1.7,15.7-16.1,25.4-24,32c0,0-22.6,20.9-37,53    c-21,46.7,21.9,125.3,98.9,156.3C766.3,1025.1,836.5,1001.5,857.3,958.1z"/>
	</g>
	<path class="st6" d="M821.8,746.5c-0.8,0.9,1.5,3,0.7,5.7c-0.7,2.1-3,4-5.3,3.7c-2.9-0.4-4.5-4-4.3-6.7c0.2-3.2,3.2-5.2,4.3-6   c4.7-3.2,12.5-3.9,17-1c9.7,6.3,12.2,25.1,6.3,41.7c-5.7,16.1-25.7,50.7-12.7,61.3c4.1,3.4,10.5,1.3,12.7,0.3   c-0.7-0.1-3.1-1.5-4.7-3.7c-2.1-2.8-1.5-7.2,1-9.3c3.3-2.8,8.8-0.8,11,2.3c2.8,4.1,0.1,10.3-3.3,13.3c-5.5,4.9-15.6,4-20.3-0.3   c-22-20.3,14.8-72.4,10-95C831.6,740.6,823,745.2,821.8,746.5z"/>
	<path class="st6" d="M763.5,724.8c0,1.1-3.1,1.3-4.1,3.9c-0.8,2-0.2,5,1.7,6.2c2.5,1.6,6-0.1,7.6-2.3c1.9-2.6,0.9-6,0.5-7.4   c-1.6-5.5-7-11-12.4-11.7c-11.5-1.4-25.5,11.5-31.6,27.9c-6,16-12.8,55.3-29.6,55.2c-5.3,0-8.9-5.7-9.9-7.9   c0.6,0.3,3.4,0.8,5.9,0.2c3.4-0.8,5.8-4.6,5.2-7.8c-0.7-4.2-6.3-6.3-9.9-5.3c-4.8,1.3-6.7,7.9-6,12.4c1.1,7.3,9.4,13.1,15.8,12.8   c29.9-1.5,35.1-65,53.3-79.3C759.8,714.1,763.5,723.1,763.5,724.8z"/>
	<path class="st7" d="M685.5,965.8c0.2,3.6,2.2,28.6,20,37.7c2.2,1.1,4.8,2.1,8,2.7l-1.3,7l-14-3.3c-0.6,1.2-1.7,2.5-3.3,3.3   c-4.9,2.4-12.8-1.6-15.3-7c-1.4-3.1-0.2-4.5-2-7c-2.1-2.9-5.7-3.7-8.7-4.3c-2.1-0.5-5.8-1-10.3,0l-5.7-3.3l2.7-11.3L685.5,965.8z"/>
	<path class="st8" d="M593.8,918.8c1.2,10.5,15,43.2,49.7,63.2c16.3,9.4,58,22,74,13.1c15.1-8.3,15.7-45.3,5.3-70.5   c-23-55.9-106-48.2-128-15.8C594.8,908.8,593.2,913.1,593.8,918.8z"/>
	<path class="st7" d="M1008.5,341.8c-4.9,0.4-8.2,6.1-9.3,8c-2.5,4.3-5.2,12.5-1.3,17.3c5.3,6.7,21.6,4.6,25.3-3.7   C1027,354.9,1016.6,341.2,1008.5,341.8z"/>
	<path class="st7" d="M1011.4,326.7c1.4-2.5,2.7-4.9,5.5-5.9c5.3-2,12.8,2,15.7,8c1.8,3.8,1.8,8.7-0.6,12.5   c-4.7,7.5-17.6,9-22.4,3.9C1004.2,339.5,1010.7,327.9,1011.4,326.7z"/>
	<path class="st7" d="M924.5,335.2c1.3,2.5,0.2,5.4-2,11.3c-2.1,5.6-3.2,8.4-5.3,9.7c-5,2.8-14.3-0.5-17.7-7.3   c-0.2-0.4-3.5-7.1,0-12.7c3.7-5.8,11.6-5.5,14.3-5.3C916.3,330.9,922.4,331.2,924.5,335.2z"/>
	<path class="st7" d="M942.5,313.2c0.9,2.4,0.1,4.8-0.7,7c-0.6,1.7-2,5.9-5.7,8c-5.7,3.2-14.2-0.4-18-6c-0.7-1-3.8-5.6-2-9.7   c2-4.7,8.9-5.2,11.3-5.3C932.4,306.8,940.6,308.1,942.5,313.2z"/>
	<path class="st7" d="M979.5,341.8c0.7-0.3,2.1-0.7,4.3,0c1.1,0.6,2.8,1.4,5,2.2c9.9,3.4,15.2,0.3,18.3,3.5   c3.7,3.7,1.7,13.2-1.7,14.3c-1.8,0.6-3.2-1.5-6.7-3.7c-10.3-6.3-19.6-0.5-22.7-5.3C974.1,349.6,975.9,343.4,979.5,341.8z"/>
	<path class="st7" d="M989.2,322.8c0.7-0.2,2.1-0.5,4.3,0c1.1,0.4,2.8,1,5,1.5c9.9,2.4,15.2,0.2,18.3,2.5c3.7,2.6,1.7,9.4-1.7,10.2   c-1.8,0.4-3.2-1.1-6.7-2.6c-10.3-4.4-19.6-0.4-22.7-3.8C983.9,328.3,985.6,323.9,989.2,322.8z"/>
	<path class="st7" d="M944.6,344.9c-0.5-0.6-1.6-1.5-4-1.8c-1.2,0.1-3.1,0.1-5.5-0.1c-10.5-0.9-14-5.9-18.2-4.3   c-4.9,1.9-7,11.3-4.3,13.8c1.4,1.3,3.5-0.1,7.6-0.6c11.9-1.5,18.1,7.6,22.9,4.4C946.3,354.2,947.2,347.8,944.6,344.9z"/>
	<path class="st7" d="M958.6,322.1c-0.6-0.5-1.8-1.3-4-1.6c-1.1,0-3-0.1-5.2-0.5c-10.1-1.5-14.1-5.6-17.9-4.7c-4.4,1.1-5.2,8-2.3,10   c1.5,1.1,3.3,0.2,7.2,0.1c11.2-0.2,18.3,7.1,22.4,5.1C961.5,329.3,961.5,324.5,958.6,322.1z"/>
	<path class="st5" d="M1019.9,275.2c2.7,8.2,4.9,20,0,31c-2.9,6.6-5.8,7.1-15.8,17.8c-12.1,12.9-22.4,23.9-26.2,39.5   c-2.2,9.1,0,10.9-3.4,17.7c-0.5,1-8.7,17.3-24,18c-0.5,0-13,0.4-19-7.9c-13.4-18.4,12-69.3,34.8-71.9c3.7-0.4,14-0.4,17.9-6.7   c1.2-1.9,1.4-3.9,1.5-5.2l-5.9-1.2l5.3-7.3l-6.9-4.4l4-5.1l-2.5-2.4l6.5-7.1l2.2,1.5l5.2-6.1l5.3,2.8l9-9.8L1019.9,275.2z"/>
	<path class="st7" d="M964.5,365.5L833.5,701l-8-4.5c-0.6-0.4-1.1-0.8-1.7-1.2c-10.2-6.9-25.5-14.7-44.8-15.8   c-3.3-0.2-6.5-0.2-9.5,0c56.7-107,113.3-214,170-321c4.4,1.2,8.9,0.5,13.3,1.7C956.7,361.3,960.6,364.4,964.5,365.5z"/>
	<path class="st7" d="M715.5,822.9c-4.4,12.3-6,22.4-6.7,29.4c-1.5,16,0.7,28.4-4.8,47.6c-0.7,2.5-1.4,4.5-1.8,5.7l9,8.6l6.7,9.3   c15-24,26-38.7,34.7-48.3c3.6-4.1,12.1-13,15-27.2c0.8-4,1-7.4,1-9.7c-6.5,0.3-18.7-0.1-32-6.8c-8.8-4.4-15-10.1-19-14.3   L715.5,822.9z"/>
	<path class="st7" d="M991.6,308.2c-1.2,2.8-3.3,6.7-7.3,9.5c-4.6,3.3-9.4,3.6-10.7,3.7c-6.4,0.7-19.1,8.1-35.2,39l24.7,8   c0.6-0.9,12-31.9,19.4-37.3c4.6-3.3,6.3-3,10.1-6.8c4.6-4.6,6.9-9.9,8.1-13.7L991.6,308.2z"/>
	<path class="st9" d="M804,783.3c-11.3-7.9-25.9-16.5-43.8-24c-10.1-4.2-19.7-7.4-28.4-9.8l-2,3.2l6.7,8.9l64.8,29.9L804,783.3z"/>
	<g>
		<path class="st10" d="M950.5,347.5l-10.8,13.2l0-0.1c-8,16.4-15.8,32.9-23.9,49.3l-24.5,49l-49,98l-98,196l0.1-0.1    c-2.1,6.4-4.1,12.8-6.3,19.2l-6.5,19.2l-13.1,38.3l11.9-38.7l6-19.3c1.9-6.5,4.1-12.9,6.2-19.3l0-0.1l0-0.1l98-196l49-98l24.5-49    c8.3-16.3,16.8-32.4,25.1-48.7l0,0l0,0L950.5,347.5z"/>
	</g>
	<g>
		<path class="st10" d="M732.5,836.5l12.4-37.7l6.2-18.8l3.1-9.4l3.2-9.4l0-0.1l0,0l93.5-198.5l46.8-99.2l23.4-49.6l11.7-24.8    c3.9-8.2,8-16.4,12-24.7l0,0l0,0l26.2-39L946,364.9l0-0.1c-3.8,8.3-7.5,16.7-11.4,25L923,414.5l-23.4,49.6l-46.8,99.3l-93.5,198.5    l0-0.1l-3.3,9.4l-3.4,9.3l-6.8,18.7L732.5,836.5z"/>
	</g>
	<g>
		<path class="st10" d="M969.1,339.5l-13.6,22.9l0,0L944.3,388l-5.6,12.8l-5.8,12.7l-23.1,50.9l-46.2,101.8l-92.3,203.7l0-0.1    c-2.1,5.9-4.4,11.8-6.7,17.7l-6.7,17.7l-13.5,35.3l12.5-35.7l6.3-17.8c2.1-5.9,4.1-11.9,6.3-17.8l0,0l0,0l92.3-203.7l46.2-101.8    l23.1-50.9l5.8-12.7l5.9-12.7l11.9-25.3l0,0l0,0L969.1,339.5z"/>
	</g>
	<g>
		<path class="st10" d="M759.8,844.5c8.1-20.2,16.3-40.4,24.4-60.6l25.3-60.2l50.7-120.4l50.7-120.4l25.3-60.2l26.3-59.8l-24.4,60.6    l-25.3,60.2l-50.7,120.4l-50.7,120.4l-25.3,60.2C777.3,804.6,768.6,824.6,759.8,844.5z"/>
	</g>
</g>
<g xmlns="http://www.w3.org/2000/svg" id="Bow">
	<path class="st11" d="M438,909.5l3.3,2.1l-0.8,7.2c-0.8-0.2-1.7-0.3-2.5,0c-3,1.1-4.4,6.8-2.2,10c0.9,1.2,2.4,2.2,4,2.3   c4.2,0.4,9-4.7,12-12.7l5.2-3.2l3.5,2.2l-38,59.5l-22.2-14.8l33.1-50.6L438,909.5z"/>
	<polygon class="st5" points="389.1,978.2 382.9,974 429.6,906.8 435.8,911  "/>
	<circle class="st12" cx="419.9" cy="959.2" r="4.1"/>
	<path class="st13" d="M884.5,220.5c-61.3,98.5-122.3,197.1-183,296c-81.6,133-162.6,266.3-243,400"/>
	<path class="st5" d="M497.7,820.8l-6.5-4.7c91.4-126.7,175.4-268,275.8-439.7c29-49.5,66.2-114.4,97.9-177.8l7.2,3.6   c9.3,2.8,20.9-1.3,20.9-1.3c-0.6,2.1-1.1,6.2-2.6,10.2c-1.7,4.5-4.8,10-5.1,10.6c-1.1,2.1-17.1-11-20-6.2   c-34.1,57.1-64.4,118.8-91.4,165C673.4,552.4,589.3,693.9,497.7,820.8z"/>
	<polygon class="st12" points="462.1,873.8 455.6,869.3 491.2,816.2 497.7,820.8  "/>
	<path class="st11" d="M434.3,911.2l-4.6-3.1c-0.9-0.6-1.2-1.9-0.5-2.9l25-35.1c0.6-0.9,1.9-1.1,2.8-0.5l4.6,3.1   c0.9,0.6,1.2,1.9,0.5,2.9l-25,35.1C436.5,911.6,435.2,911.9,434.3,911.2z"/>
	<polygon class="st12" points="191.6,961.9 185,957.4 194.2,943.7 200.7,948.3  "/>
</g>
</svg>